<svg width="33" height="23" fill="none" xmlns="http://www.w3.org/2000/svg"><path d="M16.5 6.9a4.45 4.45 0 013.182 1.347A4.652 4.652 0 0121 11.5c0 1.22-.474 2.39-1.318 3.253A4.45 4.45 0 0116.5 16.1a4.45 4.45 0 01-3.182-1.347A4.652 4.652 0 0112 11.5c0-1.22.474-2.39 1.318-3.253A4.45 4.45 0 0116.5 6.9zm0-6.9C24 0 30.405 4.769 33 11.5 30.405 18.231 24 23 16.5 23S2.595 18.231 0 11.5C2.595 4.769 9 0 16.5 0zM3.27 11.5c2.475 5.152 7.59 8.433 13.23 8.433 5.64 0 10.755-3.281 13.23-8.433-2.475-5.152-7.59-8.433-13.23-8.433-5.64 0-10.755 3.281-13.23 8.433z" fill="#20252D"/></svg>