<svg width="27" height="27" fill="none" xmlns="http://www.w3.org/2000/svg"><path d="M17.466 26.442H8.49a9.207 9.207 0 01-2.992-.332 6.26 6.26 0 01-4.82-3.99 9.475 9.475 0 01-.665-3.656V8.657a9.204 9.204 0 01.333-2.992A6.016 6.016 0 014.169.678 9.475 9.475 0 017.826.013h9.806a9.204 9.204 0 012.992.333 6.785 6.785 0 014.987 3.989 8.943 8.943 0 01.665 3.657v9.807a9.201 9.201 0 01-.333 2.992 6.259 6.259 0 01-3.989 4.82 9.474 9.474 0 01-3.657.665c-.26.12-.544.177-.83.166zM2.174 13.145v3.324a21.195 21.195 0 00.166 3.158 4.867 4.867 0 001.164 2.66 5.744 5.744 0 003.49 1.662 43.57 43.57 0 004.655.166h4.654a21.194 21.194 0 003.158-.166 4.867 4.867 0 002.66-1.164 5.744 5.744 0 001.662-3.49c.138-1.548.193-3.101.166-4.654V9.986a21.195 21.195 0 00-.167-3.158 4.867 4.867 0 00-1.163-2.66 5.744 5.744 0 00-3.49-1.661 43.552 43.552 0 00-4.655-.167H9.82a24.547 24.547 0 00-3.49.167A4.246 4.246 0 002.507 5.83a8.344 8.344 0 00-.333 1.995v5.319z" fill="#172029"/><path d="M19.794 13.144a6.815 6.815 0 11-6.815-6.815 6.845 6.845 0 016.815 6.815zm-6.815 4.488a4.406 4.406 0 10-4.322-4.322 4.437 4.437 0 004.322 4.322zm8.809-11.469a1.662 1.662 0 11-3.324 0 1.662 1.662 0 013.324 0z" fill="#172029"/></svg>