<svg width="16" height="16" fill="none" xmlns="http://www.w3.org/2000/svg"><path d="M10.508 15.908h-5.4a5.54 5.54 0 01-1.8-.2 3.766 3.766 0 01-2.9-2.4 5.7 5.7 0 01-.4-2.2v-5.9a5.537 5.537 0 01.2-1.8 3.62 3.62 0 012.3-3 5.7 5.7 0 012.2-.4h5.9a5.537 5.537 0 011.8.2 4.082 4.082 0 013 2.4c.286.697.422 1.447.4 2.2v5.9a5.54 5.54 0 01-.2 1.8 3.766 3.766 0 01-2.4 2.9c-.7.277-1.447.413-2.2.4a1.088 1.088 0 01-.5.1zm-9.2-8v2c-.014.635.02 1.27.1 1.9.065.592.31 1.15.7 1.6a3.45 3.45 0 002.1 1c.93.083 1.866.117 2.8.1h2.8c.635.014 1.27-.02 1.9-.1a2.928 2.928 0 001.6-.7 3.456 3.456 0 001-2.1c.083-.93.117-1.866.1-2.8v-2.8c.014-.635-.02-1.27-.1-1.9a2.929 2.929 0 00-.7-1.6 3.456 3.456 0 00-2.1-1 26.201 26.201 0 00-2.8-.1h-2.8a14.768 14.768 0 00-2.1.1 2.554 2.554 0 00-2.3 2c-.115.39-.182.793-.2 1.2v3.2z" fill="#fff"/><path d="M11.908 7.908a4.1 4.1 0 11-4.1-4.1 4.118 4.118 0 014.1 4.1zm-4.1 2.7a2.651 2.651 0 10-2.6-2.6 2.67 2.67 0 002.6 2.6zm5.3-6.9a1 1 0 11-2 0 1 1 0 012 0z" fill="#fff"/></svg>