<svg width="14" height="22" viewBox="0 0 14 22" fill="none" xmlns="http://www.w3.org/2000/svg">
<path d="M0.625096 11.0417C0.623479 11.3201 0.677084 11.596 0.782834 11.8537C0.888583 12.1113 1.0444 12.3457 1.24135 12.5433L9.74135 21.003C9.93948 21.2002 10.1747 21.3566 10.4336 21.4634C10.6924 21.5701 10.9699 21.625 11.2501 21.625C11.5303 21.625 11.8078 21.5701 12.0666 21.4634C12.3255 21.3566 12.5607 21.2002 12.7588 21.003C12.957 20.8058 13.1141 20.5717 13.2214 20.3141C13.3286 20.0564 13.3838 19.7803 13.3838 19.5014C13.3838 19.2225 13.3286 18.9464 13.2214 18.6888C13.1141 18.4311 12.957 18.197 12.7588 17.9998L5.72509 11.0417L12.4826 4.06247C12.7 3.86791 12.8747 3.63081 12.9957 3.366C13.1168 3.10118 13.1817 2.81435 13.1864 2.52343C13.191 2.23252 13.1353 1.94378 13.0227 1.67528C12.9101 1.40678 12.743 1.16429 12.5319 0.962978C12.3209 0.761667 12.0703 0.605864 11.796 0.505314C11.5217 0.404762 11.2295 0.36163 10.9376 0.378609C10.6458 0.395586 10.3606 0.472315 10.0999 0.603991C9.83924 0.735666 9.60866 0.919457 9.4226 1.14387L1.2201 9.60357C0.845426 9.99034 0.632695 10.5045 0.625096 11.0417Z" fill="url(#paint0_radial)"/>
<defs>
<radialGradient id="paint0_radial" cx="0" cy="0" r="1" gradientUnits="userSpaceOnUse" gradientTransform="translate(7.23656 11) rotate(180) scale(8.59753 14.3194)">
<stop stop-color="#16488D"/>
<stop offset="0.999976" stop-color="#0E2D58"/>
</radialGradient>
</defs>
</svg>
