<svg width="5" height="6" viewBox="0 0 5 6" fill="none" xmlns="http://www.w3.org/2000/svg">
<path d="M0.243197 1.30224C-0.051606 1.07711 -0.0817414 0.721688 0.171134 0.4686C0.230094 0.409197 0.300192 0.349295 0.384702 0.29089C0.515725 0.19904 0.636267 0.132149 0.743051 0.0842268C1.01296 -0.0395715 1.34838 -0.0230984 1.61108 0.108687C1.94126 0.274916 2.51645 0.612865 3.41331 1.28926C4.04877 1.76798 4.4818 2.16583 4.76416 2.45686C5.07861 2.78133 5.07861 3.21912 4.76416 3.54309C4.4818 3.83412 4.04877 4.23247 3.41331 4.71119C2.51645 5.38759 1.94126 5.72504 1.61108 5.89126C1.34838 6.02355 1.01296 6.03902 0.743051 5.91622C0.636267 5.8678 0.515725 5.80141 0.384702 5.70956C0.300192 5.65116 0.230094 5.59075 0.171134 5.53185C-0.0817414 5.27876 -0.051606 4.92334 0.243197 4.69771L2.50007 2.99998L0.243197 1.30224Z" fill="#D8E5F9"/>
</svg>
