<svg width="33" height="23" viewBox="0 0 33 23" fill="none" xmlns="http://www.w3.org/2000/svg">
<path d="M16.5 6.9C17.6935 6.9 18.8381 7.38464 19.682 8.24731C20.5259 9.10998 21 10.28 21 11.5C21 12.72 20.5259 13.89 19.682 14.7527C18.8381 15.6154 17.6935 16.1 16.5 16.1C15.3065 16.1 14.1619 15.6154 13.318 14.7527C12.4741 13.89 12 12.72 12 11.5C12 10.28 12.4741 9.10998 13.318 8.24731C14.1619 7.38464 15.3065 6.9 16.5 6.9ZM16.5 0C24 0 30.405 4.76867 33 11.5C30.405 18.2313 24 23 16.5 23C9 23 2.595 18.2313 0 11.5C2.595 4.76867 9 0 16.5 0ZM3.27 11.5C5.745 16.652 10.86 19.9333 16.5 19.9333C22.14 19.9333 27.255 16.652 29.73 11.5C27.255 6.348 22.14 3.06667 16.5 3.06667C10.86 3.06667 5.745 6.348 3.27 11.5Z" fill="#20252D"/>
</svg>
