<svg width="10" height="19" viewBox="0 0 10 19" fill="none" xmlns="http://www.w3.org/2000/svg">
<path d="M6.692 3.46398C6.74103 3.37841 6.80928 3.30541 6.89137 3.25075C6.97346 3.19609 7.06714 3.16127 7.165 3.14905H10V0.000132539H7.165C6.60724 -0.00457965 6.05559 0.116415 5.551 0.354131C5.05394 0.588081 4.61117 0.923186 4.251 1.33802C3.87743 1.76791 3.5841 2.26141 3.385 2.79501C3.17661 3.33517 3.06982 3.90918 3.07 4.48815V6.29914H0V9.21221H3.071V18.0303H6.457V9.21224H10V6.29917H6.457V4.17318C6.45441 3.91724 6.53709 3.66773 6.692 3.46398Z" fill="white"/>
</svg>
