<svg width="17" height="30" viewBox="0 0 17 30" fill="none" xmlns="http://www.w3.org/2000/svg">
<path d="M11.1234 5.7578C11.2049 5.61556 11.3183 5.49421 11.4548 5.40336C11.5912 5.31251 11.7469 5.25463 11.9096 5.23431H16.6219V0.000220305H11.9096C10.9825 -0.00761224 10.0655 0.193503 9.22681 0.588632C8.4006 0.977502 7.66463 1.53451 7.06597 2.22403C6.44502 2.93861 5.95746 3.75889 5.62651 4.64583C5.28013 5.54368 5.10262 6.4978 5.10292 7.46015V10.4704H0V15.3124H5.10458V29.9697H10.7328V15.3125H16.6219V10.4704H10.7328V6.93661C10.7284 6.5112 10.8659 6.09646 11.1234 5.7578Z" fill="#172029"/>
</svg>
