<svg width="27" height="27" viewBox="0 0 27 27" fill="none" xmlns="http://www.w3.org/2000/svg">
<path d="M17.4662 26.4422H8.49039C7.4816 26.4963 6.47076 26.384 5.49845 26.1098C4.41561 25.9262 3.40013 25.4609 2.55402 24.7607C1.7079 24.0605 1.06094 23.1499 0.678104 22.1205C0.217225 20.9574 -0.00874741 19.7145 0.013228 18.4636V8.65667C-0.040916 7.64786 0.0713987 6.63702 0.345666 5.66471C0.461456 4.56193 0.879775 3.51261 1.55442 2.63262C2.22907 1.75264 3.1338 1.07623 4.1687 0.678108C5.33179 0.217226 6.57464 -0.00874747 7.82552 0.0132281H17.6324C18.6412 -0.0409163 19.6521 0.0713991 20.6244 0.345668C21.7191 0.550295 22.7467 1.02126 23.6163 1.71698C24.486 2.41271 25.171 3.31182 25.6109 4.33495C26.0862 5.4939 26.3127 6.73973 26.2758 7.99179V17.7988C26.33 18.8076 26.2177 19.8184 25.9434 20.7907C25.7598 21.8736 25.2946 22.8891 24.5943 23.7352C23.8941 24.5813 22.9835 25.2283 21.9541 25.6111C20.791 26.072 19.5482 26.298 18.2973 26.276C18.0374 26.3965 17.7525 26.4535 17.4662 26.4422ZM2.17407 13.1446V16.469C2.15075 17.5244 2.20631 18.5801 2.34029 19.6272C2.44861 20.6114 2.85451 21.5392 3.50383 22.2867C4.44036 23.2274 5.67379 23.8148 6.99442 23.9489C8.54173 24.0873 10.0953 24.1428 11.6486 24.1151H16.3027C17.3581 24.1384 18.4137 24.0829 19.4608 23.9489C20.4451 23.8406 21.3728 23.4347 22.1203 22.7854C23.0611 21.8488 23.6484 20.6154 23.7825 19.2947C23.9209 17.7474 23.9764 16.1938 23.9488 14.6406V9.98643C23.9721 8.93103 23.9165 7.87536 23.7825 6.82825C23.6742 5.84403 23.2683 4.91625 22.619 4.16873C21.6825 3.22799 20.449 2.64064 19.1284 2.50653C17.5811 2.36816 16.0275 2.31267 14.4743 2.34031H9.82015C8.65414 2.31272 7.48765 2.36827 6.32955 2.50653C5.41966 2.5762 4.55644 2.93719 3.86783 3.53599C3.17921 4.13479 2.70186 4.93953 2.50651 5.83093C2.31524 6.47987 2.20361 7.14967 2.17407 7.82557V13.1446Z" fill="#172029"/>
<path d="M19.7935 13.1442C19.7935 14.4921 19.3939 15.8098 18.645 16.9305C17.8962 18.0513 16.8318 18.9248 15.5865 19.4406C14.3413 19.9564 12.971 20.0914 11.649 19.8284C10.327 19.5655 9.11273 18.9164 8.15964 17.9633C7.20655 17.0102 6.55748 15.7958 6.29453 14.4738C6.03157 13.1518 6.16653 11.7815 6.68234 10.5362C7.19815 9.29089 8.07164 8.22652 9.19236 7.47766C10.3131 6.7288 11.6307 6.3291 12.9786 6.3291C14.7835 6.33712 16.5123 7.05771 17.7886 8.33406C19.0649 9.61042 19.7855 11.3392 19.7935 13.1442ZM12.9786 17.6323C13.8568 17.6488 14.72 17.4025 15.4572 16.9248C16.1944 16.4472 16.772 15.76 17.1158 14.9517C17.4596 14.1433 17.5539 13.2506 17.3866 12.3882C17.2193 11.5259 16.798 10.7332 16.1769 10.1121C15.5558 9.49091 14.7631 9.06962 13.9008 8.90231C13.0384 8.735 12.1458 8.82931 11.3374 9.17311C10.5291 9.51692 9.84194 10.0945 9.36429 10.8318C8.88665 11.569 8.64029 12.4322 8.65686 13.3105C8.68596 14.4475 9.15062 15.5299 9.95488 16.3342C10.7591 17.1385 11.8415 17.6032 12.9786 17.6323Z" fill="#172029"/>
<path d="M21.7878 6.16341C21.7878 6.49216 21.6903 6.81353 21.5076 7.08687C21.325 7.36022 21.0654 7.57326 20.7617 7.69907C20.4579 7.82488 20.1237 7.8578 19.8013 7.79366C19.4789 7.72952 19.1827 7.57122 18.9502 7.33875C18.7178 7.10629 18.5595 6.81012 18.4953 6.48769C18.4312 6.16525 18.4641 5.83104 18.5899 5.52732C18.7157 5.22359 18.9288 4.96399 19.2021 4.78135C19.4755 4.59871 19.7968 4.50122 20.1256 4.50122C20.5661 4.50214 20.9884 4.67756 21.2999 4.98908C21.6114 5.3006 21.7868 5.72285 21.7878 6.16341Z" fill="#172029"/>
</svg>
