<svg width="16" height="16" viewBox="0 0 16 16" fill="none" xmlns="http://www.w3.org/2000/svg">
<path d="M10.508 15.9081H5.10796C4.50105 15.9406 3.89292 15.8731 3.30796 15.7081C2.6565 15.5976 2.04558 15.3177 1.53654 14.8964C1.0275 14.4752 0.638276 13.9274 0.407958 13.308C0.130686 12.6083 -0.00526258 11.8606 0.00795819 11.108V5.20799C-0.0246157 4.60108 0.0429546 3.99294 0.207958 3.40798C0.27762 2.74453 0.529287 2.11324 0.935167 1.58383C1.34105 1.05442 1.88535 0.64748 2.50796 0.407961C3.20769 0.130687 3.95541 -0.00526262 4.70796 0.00795824H10.608C11.2149 -0.0246159 11.823 0.0429549 12.408 0.20796C13.0666 0.331067 13.6848 0.614404 14.208 1.03297C14.7312 1.45153 15.1433 1.99244 15.408 2.60797C15.6939 3.30522 15.8301 4.05473 15.808 4.80799V10.708C15.8405 11.3149 15.773 11.9231 15.608 12.508C15.4975 13.1595 15.2176 13.7704 14.7963 14.2795C14.3751 14.7885 13.8273 15.1777 13.208 15.4081C12.5082 15.6853 11.7605 15.8213 11.008 15.8081C10.8516 15.8806 10.6802 15.9148 10.508 15.9081ZM1.30796 7.90801V9.90802C1.29393 10.543 1.32735 11.1781 1.40796 11.808C1.47312 12.4002 1.71732 12.9583 2.10796 13.408C2.67139 13.974 3.41344 14.3274 4.20796 14.408C5.13884 14.4913 6.07351 14.5247 7.00796 14.508H9.80796C10.4429 14.5221 11.078 14.4887 11.708 14.408C12.3001 14.3429 12.8582 14.0987 13.308 13.708C13.8739 13.1446 14.2273 12.4025 14.308 11.608C14.3912 10.6771 14.4246 9.74247 14.408 8.80801V6.008C14.422 5.37305 14.3886 4.73795 14.308 4.10798C14.2428 3.51586 13.9986 2.9577 13.608 2.50797C13.0445 1.94201 12.3025 1.58865 11.508 1.50797C10.5771 1.42472 9.64241 1.39134 8.70796 1.40797H5.90796C5.20647 1.39137 4.50469 1.42479 3.80796 1.50797C3.26056 1.54989 2.74123 1.76706 2.32695 2.12731C1.91267 2.48756 1.62548 2.9717 1.50796 3.50798C1.39288 3.89839 1.32572 4.30136 1.30796 4.70799V7.90801Z" fill="white"/>
<path d="M11.908 7.90771C11.908 8.71864 11.6676 9.51135 11.217 10.1856C10.7665 10.8599 10.1262 11.3854 9.37702 11.6957C8.62784 12.006 7.80347 12.0872 7.00814 11.929C6.21282 11.7708 5.48227 11.3803 4.90887 10.8069C4.33548 10.2335 3.94499 9.50294 3.78679 8.7076C3.62859 7.91226 3.70978 7.08787 4.0201 6.33867C4.33042 5.58948 4.85593 4.94913 5.53017 4.49861C6.20442 4.04808 6.99711 3.80762 7.80801 3.80762C8.89392 3.81244 9.93397 4.24596 10.7018 5.01384C11.4697 5.78171 11.9032 6.82179 11.908 7.90771ZM7.80801 10.6078C8.33639 10.6177 8.85569 10.4695 9.29921 10.1822C9.74273 9.8948 10.0902 9.48141 10.2971 8.99508C10.5039 8.50876 10.5606 7.9717 10.46 7.45289C10.3593 6.93408 10.1059 6.4572 9.73218 6.08351C9.35849 5.70981 8.88163 5.45636 8.36283 5.3557C7.84403 5.25505 7.30698 5.31178 6.82067 5.51862C6.33435 5.72546 5.92097 6.07296 5.63361 6.51649C5.34625 6.96002 5.19804 7.47933 5.20801 8.00772C5.22552 8.69178 5.50507 9.34299 5.98892 9.82685C6.47277 10.3107 7.12397 10.5903 7.80801 10.6078Z" fill="white"/>
<path d="M13.1079 3.70801C13.1079 3.90579 13.0493 4.09913 12.9394 4.26358C12.8295 4.42803 12.6733 4.5562 12.4906 4.63189C12.3079 4.70757 12.1068 4.72738 11.9128 4.68879C11.7188 4.65021 11.5407 4.55497 11.4008 4.41511C11.261 4.27526 11.1657 4.09708 11.1271 3.9031C11.0885 3.70912 11.1083 3.50805 11.184 3.32532C11.2597 3.1426 11.3879 2.98642 11.5523 2.87654C11.7168 2.76666 11.9101 2.70801 12.1079 2.70801C12.373 2.70856 12.627 2.81409 12.8144 3.00151C13.0018 3.18893 13.1074 3.44296 13.1079 3.70801Z" fill="white"/>
</svg>
